/* XPM */
static char *e6ff4c2a710243d2fe8c88e2b9663a48fBp88lF7evMpb0H8[] = {
/* columns rows colors chars-per-pixel */
"32 32 56 1 ",
"  c None",
". c #181614",
"X c #0C1A37",
"o c #282C38",
"O c #282D38",
"+ c #423F39",
"@ c #443F39",
"# c #454039",
"$ c #44403E",
"% c #4C5231",
"& c #4E5436",
"* c #565B3A",
"= c #585D3B",
"- c #546529",
"; c #112244",
": c #122244",
"> c #122245",
", c #172A52",
"< c #2D3445",
"1 c #2E3445",
"2 c #2E3545",
"3 c #2D3446",
"4 c #2E3546",
"5 c #2F364A",
"6 c #2F374A",
"7 c #333741",
"8 c #343741",
"9 c #343842",
"0 c #454141",
"q c #474343",
"w c #504A42",
"e c #504A43",
"r c #5A534A",
"t c #5C554C",
"y c #5F5B4F",
"u c #605B4F",
"i c #666C45",
"p c #6A6457",
"a c #6B6658",
"s c #6C6659",
"d c #797563",
"f c #7B7765",
"g c #7D7767",
"h c #7E7867",
"j c #7E7868",
"k c #7F7968",
"l c #798055",
"z c #7A8056",
"x c #8A9845",
"c c #828755",
"v c #838855",
"b c #8D8874",
"n c #8D8974",
"m c #8E8974",
"M c #9F9A83",
"N c #A09B83",
/* pixels */
"tamMMMmatttjNNMNNNNNjgNNNNNmfat.",
"fsamMmatttafffmNNNNNjkNNNNMMhthN",
"sfstttttttaffffffffshNNNNNNktthN",
"mffffattteyfffffffaaffffmMmfssah",
"Mmfffffsreeaggptteeaffffffffffse",
"Nmffffffgsttrttttttttafffffffffs",
"kafffffattre@@@@@@etttaffffffssf",
"fyyfaaatte@@@@@@@@@@@etaffffsafs",
"ffsttttte@e9XXX8e@@@@@etttafuysk",
"fffsttte##e9XXX8Oo@oXoetttsuyskM",
"Nmffpte#@@&8XXX89OoXXo@etafuymMN",
"NNmste@oo@oXXXXXXOoXXXo@eteuffmN",
"NNmate+oooXXXXXXXXXXXX8eetafffak",
"Mkaaee9XooXXXXXXXXXXXX8e@etaffat",
"tastee9XXXXXXXXXXXXXXX78oettsffa",
"tase#e9XXXXXXXXXXXXXXXXXo@eaffff",
"afse@e9XXXXXXXXXXXXXXXXXXOwtsfff",
"fgseO79XXXXXXXXXXXXXXXXXXO#wsfff",
"ffseOXXXXXXXXXXXXXXXXXXXXo##wsff",
"ffaeOXXXXXXXXXXXXXXXXXXXXOumhsff",
"fsteoXXXXXXXXXXXXXXXXXXXoynNNNmh",
"mate@oXXXXXXXXXXXXXXXXXXoethNNMn",
"MktteoXXXX;>;>;;>>>>XXXXo#wanNha",
"Mktte7>;>;>;>;>;>>>>>>>:<#wtttaf",
"MNkteO;;;;;,,,,,,,,>>>>>o+&ttsgd",
"NNkte+o;;;,,,,,,,,,,,,>><@etsgdg",
"Nktte@6,,,,,6qqqqq6,,,,<@@etjNNb",
"msttte@<,,6qqqqqqqqq6,,<@@e=dNNN",
"gsttte@<6qqqqqqqqqqqqq6<##%lmNNN",
"dstte%-&q00000000000000$#%-=bmNN",
"hfse@@%-                  iptsbv",
"dddprr*                      avx"
};
