/* XPM */
static char *result[] = {
/* columns rows colors chars-per-pixel */
"32 32 15 1 ",
"  c #667A31",
". c #677B31",
"X c #697D33",
"o c #6A7D33",
"O c #6C7F34",
"+ c #6D8035",
"@ c #708236",
"# c #718337",
"$ c #81913F",
"% c #859441",
"& c #869542",
"* c #889643",
"= c #899743",
"- c #8B9945",
"; c #8C9A45",
/* pixels */
"-;;;;;;;&-;&%%-;&%%%-;;;;;;;;;;;",
";;;;;;;;;;;;;;;;;;;;;;;;;;;;;;;;",
";;;;;;;;;;;;;;;;;;;;;;;;;;;;;;;;",
";;;;;;;;;;;;;;;;;;;;;;;;;;;;;;;;",
";;;;;;;;;;;;;;;;;;;;;;;;;;;;;;;;",
";;;;;;;;;;;;;;;;;;;;;;;;;;;;;;;;",
";;;;;;;;;;;;;;;;;;;;;;;;;;;;;;;;",
";;;;;;;;;;;#+=;;;;;#+=;;;;;;;;;;",
";;;;;;;;;;;&XO=;;;;o$-;;;;;;;;;;",
";;;;;;;;;;;;&X*;;;;&-;;;;;;;;;;;",
";;;;;;;;;;;;;&-#+=;;;;;;;;;;;;;;",
";;;;;;;;;#=;;#=&XO=;;;;;#+=;;;;;",
";;;;;;;;;oO=;oO+. *#++=#.$-;;;;;",
";;;;;;;;;&X*;&X   O. $-o$-;;;;;;",
";;;;;;;;;;&@=#.     $-;&-;;;;;;;",
";;;;;;;;;;#.O.      O+=;;;;;;;;;",
";;;;;;;;;;&X          O=;;;;;;;;",
";;;;;;;;;;;o        $X$-;;;;;;;;",
";;;;;;;;;;#. $%X   $-&-;#=;;;;;;",
";;;;;;;;;;&X$-#.  $@=;;#.*;;;;;;",
";;;;;;;#+=;&-#.  $-&-;;o$-;;;;;;",
";;;;;;;&XO=;;&X  *#+=;;&-;;;;;;;",
";;;;;;;;&X*;;;&%%-&X*;;;;;;;;;;;",
";;;;;;;;;&-;;;;;;;;&-;;;;;;;;;;;",
";;;;;;;;;;;;;;;;;;;;;;;;;;;;;;;;",
";;;;;;;;;;;;;;;;;;;;;;;;;;;;;;;;",
";;;;;;;;;;;;;;;;;;;;;;;;;;;;;;;;",
";;;;;;;;;;;;;;;;;;;;;;;;;;;;;;;;",
";;;;;;;;;;;;;;;;;;;;;;;;;;;;;;;;",
";;;;;;;;;;;;;;;;;;;;;;;;;;;;;;;;",
";;;;;;;;;;;;;;;;;;;;;;;;;;;;;;;;",
";;;;;;;;;;;;;;;;;;;;;;;;;;;;;;;;"
};
