/* XPM */
static char *floor[] = {
/* columns rows colors chars-per-pixel */
"16 16 31 1 ",
"  c #697C33",
". c #6C7F34",
"X c #6E8135",
"o c #718337",
"O c #738438",
"+ c #748538",
"@ c #748638",
"# c #758639",
"$ c #768739",
"% c #78893B",
"& c #798A3B",
"* c #7B8B3C",
"= c #7C8C3D",
"- c #7D8D3D",
"; c #7F8E3E",
": c #7F8F3E",
"> c #80903F",
", c #81903F",
"< c #829140",
"1 c #839240",
"2 c #839241",
"3 c #849341",
"4 c #869542",
"5 c #879642",
"6 c #889643",
"7 c #889743",
"8 c #8A9844",
"9 c #8A9944",
"0 c #8B9944",
"q c #8B9945",
"w c #8C9A45",
/* pixels */
";0ww+$*+-*$+ww<o",
"&,ww6<838448www%",
"@38wwwww84ww8w8$",
"+24=w4*%%www%83X",
"*wq7qwwwwwwwww6$",
"o4wwqw8888wwww8o",
"*4wwww8>3w6www3*",
"$qwwww4# -8www4+",
"+4wwww1O.<6wwww$",
"%5www4,><8wwww4*",
"o8ww98wwwwwwww6X",
"%4wwwwwwwwwwwww*",
"o3w+ww6-$:3w:<3+",
"$4w8ww86wwwwww8o",
"%463844838<684<+",
"X%*%+$*-+*$+o*-o"
};
