/* XPM */
static char *result[] = {
/* columns rows colors chars-per-pixel */
"32 32 172 2 ",
"   c #0",
".  c #655894",
"X  c #716696",
"o  c #736A96",
"O  c #7F6B97",
"+  c #766B9D",
"@  c #796E9A",
"#  c #7C729A",
"$  c #80769B",
"%  c #81799D",
"&  c #8C7D9E",
"*  c #907799",
"=  c #917B9B",
"-  c #9A7E9B",
";  c #877DA4",
":  c #897FA7",
">  c #8D849D",
",  c #8F899D",
"<  c #91839C",
"1  c #9B839D",
"2  c #918A9E",
"3  c #9A8C9F",
"4  c #8C83A4",
"5  c #8D83A9",
"6  c #9584A1",
"7  c #948EA4",
"8  c #988CA3",
"9  c #948BAC",
"0  c #9D8EA9",
"q  c #9A95A1",
"w  c #9791AD",
"e  c #9B94AD",
"r  c #9E95B2",
"t  c #AF8FA0",
"y  c #A594A6",
"u  c #AF92A1",
"i  c #A39DA3",
"p  c #AD9EA3",
"a  c #A597AC",
"s  c #A39DAD",
"d  c #AB9CAC",
"f  c #B097A2",
"g  c #B897A2",
"h  c #B89AA3",
"j  c #A097B1",
"k  c #A39CB4",
"l  c #ACA5A4",
"z  c #AEAAA7",
"x  c #A7A0AF",
"c  c #ACA3AD",
"v  c #AEA9AD",
"b  c #B2A6A6",
"n  c #BAA3A5",
"m  c #B2ACA7",
"M  c #B1A5AB",
"N  c #B8A6AD",
"B  c #B4AEA9",
"V  c #BCACAC",
"C  c #B9B2A1",
"Z  c #B6B1AA",
"A  c #BAB4AB",
"S  c #BDB9AD",
"D  c #A7A2B1",
"F  c #AAA2B6",
"G  c #ADA9B1",
"H  c #ADA5BA",
"J  c #B0A7B7",
"K  c #B2ADB1",
"L  c #B2ABBA",
"P  c #B6B1B1",
"I  c #B9B3B5",
"U  c #BEBAB4",
"Y  c #B7B0BC",
"T  c #B9B2BB",
"R  c #C2BB9F",
"E  c #CBA6A7",
"W  c #CBAAA8",
"Q  c #D2ACA8",
"!  c #C1BBA4",
"~  c #C1B5AA",
"^  c #CCB3AA",
"/  c #C3BBAC",
"(  c #D3B4AB",
")  c #DEB6AC",
"_  c #D2BCAD",
"`  c #DEBAAD",
"'  c #C4B2B2",
"]  c #C8B7B3",
"[  c #C2BEB4",
"{  c #C9BCB4",
"}  c #C2BDBD",
"|  c #E2BDAE",
" . c #CFC899",
".. c #D7D19B",
"X. c #E2DB99",
"o. c #E6E097",
"O. c #E6E09D",
"+. c #EAE59E",
"@. c #C5C0AD",
"#. c #CCC4AF",
"$. c #CEC9AD",
"%. c #D0C1AE",
"&. c #D3CFAD",
"*. c #D7D1A2",
"=. c #DAD5A3",
"-. c #D9D5AE",
";. c #CBC4B5",
":. c #CDCAB5",
">. c #CAC6BB",
",. c #CDCABA",
"<. c #D1C5B0",
"1. c #DCC6B0",
"2. c #D3CDB3",
"3. c #D2CEBC",
"4. c #DBCCB9",
"5. c #D4D2B4",
"6. c #D9D5B6",
"7. c #DBD9B7",
"8. c #D5D3B9",
"9. c #DCD6BA",
"0. c #DDDABA",
"q. c #E0C2AF",
"w. c #E1DCA6",
"e. c #E4C6B1",
"r. c #E8C5B1",
"t. c #E0CAB2",
"y. c #EACDB3",
"u. c #E6D4B6",
"i. c #EBD3B6",
"p. c #E4D8B7",
"a. c #E1D5BB",
"s. c #E3DBBB",
"d. c #ECDBBA",
"f. c #EAE5A2",
"g. c #E5E1AD",
"h. c #E9E6AB",
"j. c #E7E4B4",
"k. c #E9E6B4",
"l. c #E5E3BC",
"z. c #EBE4BC",
"x. c #ECEABE",
"c. c #F0E6BE",
"v. c #F0EEBF",
"b. c #F1F0BF",
"n. c #B7AEC4",
"m. c #BBB3C2",
"M. c #C3BDC2",
"N. c #CAC4C3",
"B. c #CDC8C5",
"V. c #D2CDC3",
"C. c #D6D1C1",
"Z. c #D9D5C2",
"A. c #DAD4CF",
"S. c #CFC7D5",
"D. c #CFC8D5",
"F. c #D1CAD4",
"G. c #D7D1D0",
"H. c #DDD5DC",
"J. c #DFD8DB",
"K. c #E1DEC5",
"L. c #E2DCCA",
"P. c #E2DCD6",
"I. c #E1DAD9",
"U. c #E9E3C2",
"Y. c #EEECC5",
"T. c #EAE6CD",
"R. c #EDEAC8",
"E. c #F1EEC2",
"W. c #F2F1C0",
"Q. c #E6E2D2",
"!. c #E8E4D0",
"~. c #8C9A45",
/* pixels */
"~.~.~.~.~.~.~.~.~.~.~.~.~.~.~.~.~.~.~.~.~.~.~.~.~.~.~.~.~.~.~.~.",
"~.~.~.~.~.~.~.~.~.~.~.~.~.~.~.~.~.~.~.~.~.~.~.~.~.~.~.~.~.~.~.~.",
"~.~.~.~.~.~.2 2 2 , ~.~.~.~.~.~.~.~.~.~.~.2 2 2 2 2 ~.~.~.~.~.~.",
"~.~.~.~.i l m B Z m z i ~.~.~.~.~.~.~.~.i m B B B m l q ~.~.~.~.",
"~.~.~.3 b / <.2.2.2.@.z 7 ~.~.~.~.~.# q A #.2.&.2.#.~ p < ~.~.~.",
"~.~.$ 1 n _ t.i.u.p.2.A q ; + + + @ > s / 5.d.u.y.1.^ p < ~.~.~.",
"~.~.$ * h Q | y.i.u.9.[ D w 9 9 9 9 r B ;.9.u.y.e.` W u = ~.~.~.",
"~.~.$ - h Q | r.i.d.a.V.M.m.n.n.n.n.m.N.9.K.d.y.r.) E t * ~.~.~.",
"~.~.$ 1 h ( e.y.d.z.K.L.G.F.D.D.S.S.F.A.L.U.d.d.y.q.^ f = ~.~.~.",
"~.~.$ 3 V &.d.z.c.c.U.T.J.H.H.H.H.H.I.P.T.U.E.k.d.u.%.b < ~.~.~.",
"~.~.$ q S 6.l.x.E.E.R.!.J.J.H.H.H.H.I.P.T.R.Y.b.x.j.2.B 2 ~.~.~.",
"~.~.$ q S 7.x.b.W.E.R.!.Q.Q.J.Q.I.I.I.Q.T.E.W.b.v.l.2.m 2 @ ~.~.",
"~.. @ q S 6.k.b.v.E.E.R.T.!.!.!.!.!.!.R.Y.Y.b.b.x.k.5.B 2 o ~.~.",
"~.. @ q A -.l.l.z.c.x.Y.E.R.R.R.R.R.R.E.Y.b.x.l.k.7.:.z , X   ~.",
"~.. # q A 5.6.5.7.l.x.b.W.W.W.W.W.W.W.W.b.l.0.6.8.6.$.z > X   ~.",
"~.. # q A $.5.5.5.s.x.b.W.W.W.W.W.W.W.W.b.x.7.5.5.5.;.z , o ~.~.",
"~.. @ q A 2.9.p.0.l.x.W.W.W.W.W.W.W.W.W.b.x.l.0.7.7.$.m > X   ~.",
"~.  @ 8 A 3.p.z.x.x.x.b.b.b.W.W.W.E.b.E.x.Y.z.z.s.a.;.b > X   ~.",
"~.~.O 8 N <.4.a.s.s.0.l.l.l.l.l.l.l.l.l.l.s.s.a.a.4.] M < X ~.~.",
"~.~.~.6 d N ' ] { ;.>.:.>.:.:.:.,.:.:.>.;.;.;.{ ] ' N y & ~.~.~.",
"~.~.~.~.e d c c c c s x c v Z A P P G D D x x v M c y 9 ~.~.~.~.",
"~.~.~.5 r L I I K k e w q l C S S A D e w e G P I L F r ~.~.~.~.",
"~.~.~.9 H m.B.B.>.U K v B R  ...*.&.S K G P [ 3.V.N.m.k : ~.~.~.",
"~.~.~.9 H M.C.Z.0.8.5.:.-.=...o.O.=.-.5.3.5.8.Z.Z.V.m.k 5 ~.~.~.",
"~.~.~.5 k T } 3.5.0.l.l.k.h.f.+.f.h.j.l.l.l.0.5.>.M.L r : ~.~.~.",
"~.~.~.~.9 w x M [ 8.U.l.Y.k.g.g.g.j.k.Y.U.s.:.S c a w 5 ~.~.~.~.",
"~.~.~.~.~.# ; 7 G >.Z.L.Z.0.:.$.$.5.8.K.K.C.[ s 4 ; ~.~.~.~.~.~.",
"~.~.~.~.~.~.~.; s T N.B.B.} Z v v P N.N.N.N.L w # ~.~.~.~.~.~.~.",
"~.~.~.~.~.~.~.~.9 k H L H k 7 4 7 e F H L H r 5 ~.~.~.~.~.~.~.~.",
"~.~.~.~.~.~.~.~.~.5 5 5 5 ~.~.~.~.~.4 5 5 5 ~.~.~.~.~.~.~.~.~.~.",
"~.~.~.~.~.~.~.~.~.~.~.~.~.~.~.~.~.~.~.~.~.~.~.~.~.~.~.~.~.~.~.~.",
"~.~.~.~.~.~.~.~.~.~.~.~.~.~.~.~.~.~.~.~.~.~.~.~.~.~.~.~.~.~.~.~."
};
