/* XPM */
static char *_c0f768b4b9d4bbaff0488de548a7b0cHGQejhdg6NWsuh9B[] = {
/* columns rows colors chars-per-pixel */
"32 32 12 1 ",
"  c #8C9A45",
". c #36322C",
"X c #48463B",
"o c #5C554C",
"O c #5D5B4C",
"+ c #635D52",
"@ c #6C6559",
"# c #746F5F",
"$ c #7B7765",
"% c #847F6C",
"& c #97937C",
"* c #A09B83",
/* pixels */
"                                ",
"                                ",
"              OOOO              ",
"            OO****O             ",
"          OO*******O            ",
"         O**********O           ",
"        X************           ",
"        $************X          ",
"       X$************$          ",
"       &$%*********%%&O         ",
"      O*&$*******%%&&**O        ",
"      ***$******%&&*****.       ",
"     O***&%%***%&******%o.      ",
"     *****&$%*%&****%%%+oo      ",
"    X******&$*$*****&$+ooo.     ",
"    $%******$%&******+ooooo     ",
"   X$$%%***%$$****%@@oooooo     ",
"   $$$$$%%%$$+%*%%$oooooooo     ",
"   $$$$$$$$$$o$%$$$oooooooo     ",
"   $$$$$$$$$+o$$$$$#ooooooo     ",
"   $$$$$$$$$oo$$$$$$ooooooo     ",
"    $$$$$$$$oo$$$$$$#oooooo     ",
"    $$$$$$$$oo$$$$$$$ooooo      ",
"      $$$$$$oo+$$$$$+ooooo      ",
"      $$$$$+ooo$$$$+ooooo       ",
"       $$$$oooo+$$+ooooo        ",
"        $$+ooooo++oooo          ",
"          oooooooooo            ",
"            ooooo               ",
"                                ",
"                                ",
"                                "
};
