/* XPM */
static char *_91218214e9342b29efe8799367d4c57M75eIwkDUvygKqWI[] = {
/* columns rows colors chars-per-pixel */
"32 32 61 1 ",
"  c None",
". c #443F39",
"X c #453F39",
"o c #454039",
"O c #464139",
"+ c #45403A",
"@ c #46413A",
"# c #47413B",
"$ c #46423A",
"% c #47423B",
"& c #47423C",
"* c #494539",
"= c #48443A",
"- c #49463A",
"; c #48433C",
": c #637532",
"> c #657832",
", c #667933",
"< c #4E4841",
"1 c #524C44",
"2 c #544D45",
"3 c #585148",
"4 c #5A534B",
"5 c #5B544B",
"6 c #5C554B",
"7 c #5B554C",
"8 c #5C554C",
"9 c #5D574C",
"0 c #5D564D",
"q c #5E574D",
"w c #5E584E",
"e c #605A4B",
"r c #60594F",
"t c #615A50",
"y c #6E6A5A",
"u c #6E6B5B",
"i c #6F6B5B",
"p c #787463",
"a c #797463",
"s c #797564",
"d c #7A7664",
"f c #7B7765",
"g c #7C7866",
"h c #7D7967",
"j c #7E7A67",
"k c #869344",
"l c #879344",
"z c #879444",
"x c #889544",
"c c #889445",
"v c #889644",
"b c #889546",
"n c #8A9844",
"m c #8A9845",
"M c #9B967F",
"N c #9C9780",
"B c #9D9881",
"V c #9E9981",
"C c #9E9982",
"Z c #9F9A82",
"A c #A09B83",
/* pixels */
"            q7q44           qq44",
"1<  11111< 2NNNNM-  11111< 2MNNM",
"ssyiVMsMsNushAAAhsiiNNsNsMiMAAAA",
"shVVAAVhVAVVVAAVggVVAANhAAVAAAAA",
"hVAAAAAVAAAAAAZhgVAAAAAVAAAAAAAh",
"MAAAAAAAAAAAAAZgVAAAAAAAAAAAAAVg",
"AAAAAAAAAAAAAAAVAAAAAAAAAAAAAAAV",
"AAAAAAAhAAAAAhAAAAAAAAAhAAAAAhAA",
"AAAAAAAVAAAAAVhhhAhhAAAVAAAAAVAA",
"AAAAhAAAAAAAAANhVhVVAAAAAAAAAAAA",
"AAAhVAAAAAAAAAAVAVAAAAAAAAAAAAAA",
"AAAMAAAAAAAAAAAAAAAAAAAAAAAAAAAV",
"jAhhhhAAAAAAAAVhhhhhhAAAAAAVhhhg",
"rrqqqwwtAAAAVttqwqqqqttAAAVhdqqq",
"6oooooqqttttrq..o.oo#o7rtttqq..o",
"oo55q44..o...o47q44q4..#..#oo64.",
"46pdssq4445457sspsssd44446455qpp",
"sdsggsssddddsshssghsdddddddddpfs",
"gssgsgshshshshshdhshshshdhshhsww",
"qhggsggsd6qqqqqqwshshshso###oq66",
"6qqqo##-wq57.oooowqqq#o;44545.oo",
"oo#o4465oooo44554oo.o645ddddsdps",
"psppddddpdspddddddppdssddsshshsh",
"sffshsshsshshsshgssgsgshdhhshssq",
"hsswqqqqqqsshshsdhsdqqqww6qqqqqq",
"#hssssss..;;#;;o*shhssssddd...os",
"5o-###o;4q4764544o##;#;o#o;5l44#",
"754q644qz7q7q7q57q464647656qrlq7",
"#q7qq7q79m7qq7q7..#.o777777q9moo",
"l..o.o.owmoo#,l......##.o#ooo*:o",
"=z:.....o*,o:z-.....o...ozoozozo",
"+*ml....oozoz*oozl..ol...-zomomo"
};
